<svg viewBox="0 0 1024 1024" xmlns="http://www.w3.org/2000/svg">
  <path d="M480.7168 71.68l-3.584 8.072533c-32.768 72.9088-47.9744 73.591467-107.144533 14.9504-21.674667-21.4528-58.453333-5.905067-58.1632 24.576l0.034133 12.356267c-0.375467 74.513067-13.192533 79.018667-88.234667 47.223467-28.2624-11.946667-56.7296 16.503467-44.765866 44.7488l4.727466 11.349333c27.886933 68.642133 17.681067 77.653333-64.3072 76.868267-30.481067-0.290133-46.0288 36.5056-24.576 58.1632l6.058667 6.161066c54.3744 56.1152 48.981333 70.4512-29.098667 104.567467 27.2896 11.9296 27.2896 50.6368 0 62.5664l8.0896 3.584c72.9088 32.768 73.591467 47.9744 14.9504 107.144533-21.4528 21.674667-5.905067 58.453333 24.576 58.1632l12.356267-0.034133c74.513067 0.375467 79.018667 13.192533 47.223467 88.234667-11.946667 28.2624 16.503467 56.7296 44.7488 44.765866l11.349333-4.727466c68.642133-27.886933 77.653333-17.681067 76.868267 64.3072-0.290133 30.481067 36.5056 46.0288 58.1632 24.576l6.161066-6.058667c56.1152-54.3744 70.4512-48.981333 104.567467 29.098667 11.9296 27.2896 50.6368 27.2896 62.5664 0l3.584-8.0896c32.768-72.9088 47.9744-73.591467 107.144533-14.9504 21.674667 21.4528 58.453333 5.905067 58.1632-24.576l-0.034133-12.356267c0.375467-74.513067 13.192533-79.018667 88.234667-47.223467 28.2624 11.946667 56.7296-16.503467 44.765866-44.7488l-4.727466-11.349333c-27.886933-68.625067-17.664-77.653333 64.3072-76.868267 30.481067 0.290133 46.0288-36.5056 24.576-58.1632l-6.058667-6.161066c-54.3744-56.1152-48.981333-70.4512 29.098667-104.567467 27.2896-11.9296 27.2896-50.6368 0-62.5664l-8.0896-3.584c-72.9088-32.768-73.591467-47.9744-14.9504-107.144533 21.4528-21.674667 5.905067-58.453333-24.576-58.1632l-12.356267 0.034133c-74.513067-0.392533-79.018667-13.192533-47.223467-88.234667 11.946667-28.2624-16.503467-56.7296-44.7488-44.765866l-11.349333 4.727466c-68.642133 27.886933-77.653333 17.681067-76.868267-64.3072 0.290133-30.481067-36.5056-46.0288-58.1632-24.576l-6.161066 6.058667c-56.1152 54.3744-70.4512 48.981333-104.567467-29.098667-11.9296-27.2896-50.6368-27.2896-62.5664 0zM512 155.818667l1.928533 2.645333c36.744533 49.476267 80.110933 59.2896 131.754667 29.576533l4.1472-2.491733 0.8704 3.703467c14.08 57.634133 50.056533 81.8688 108.578133 73.028266l2.901334-0.477866-0.4608 2.901333c-8.823467 58.538667 15.394133 94.5152 73.045333 108.5952l3.669333 0.853333-0.1024 0.187734c-32.5632 53.384533-23.534933 98.048 27.204267 135.7312l2.628267 1.928533-2.628267 1.928533c-49.476267 36.744533-59.2896 80.110933-29.576533 131.754667l2.474666 4.1472-3.669333 0.8704c-57.6512 14.08-81.8688 50.056533-73.045333 108.578133l0.4608 2.901334-2.901334-0.4608c-58.5216-8.840533-94.498133 15.394133-108.578133 73.045333l-0.8704 3.669333-0.170667-0.1024c-53.384533-32.5632-98.048-23.534933-135.7312 27.204267l-1.928533 2.628267-1.928533-2.628267c-36.744533-49.476267-80.110933-59.2896-131.754667-29.576533l-4.164267 2.474666-0.853333-3.6864c-14.08-57.634133-50.056533-81.8688-108.578133-73.028266l-2.9184 0.4608 0.477866-2.901334c8.840533-58.5216-15.394133-94.498133-73.045333-108.578133l-3.6864-0.8704 0.119467-0.170667c32.5632-53.384533 23.534933-98.048-27.204267-135.7312L155.818667 512l2.645333-1.928533c49.476267-36.744533 59.2896-80.110933 29.576533-131.754667l-2.491733-4.164267 3.703467-0.853333c57.634133-14.08 81.8688-50.056533 73.028266-108.578133l-0.477866-2.9184 2.901333 0.477866c58.538667 8.840533 94.5152-15.394133 108.5952-73.045333l0.853333-3.6864 0.187734 0.119467c53.384533 32.5632 98.048 23.534933 135.7312-27.204267L512 155.818667z" fill="#444444"/>
  <path d="M326.621867 541.781333c-2.901333 0-5.888-0.273067-8.874667-0.8192-24.9856-4.625067-42.069333-27.306667-45.994667-47.325866-4.096-20.753067 4.864-38.997333 23.927467-48.827734a49.220267 49.220267 0 0 1 43.195733-0.853333c21.469867 9.8304 33.4848 32.8192 34.269867 50.466133a42.871467 42.871467 0 0 1-9.216 29.013334 47.36 47.36 0 0 1-37.307733 18.346666" fill="#444444"/>
  <path d="M521.386667 419.805867c-62.190933 70.212267-41.9328 162.645333 28.893866 213.947733 72.874667 52.770133 163.259733 35.1744 198.536534-58.077867 10.990933-28.9792 11.298133-60.023467 1.9456-89.156266-30.651733-95.880533-152.183467-148.667733-226.372267-69.973334l-2.986667 3.259734z m164.352 87.534933c4.778667 14.7968 4.608 29.986133-0.750934 44.151467-18.090667 47.786667-55.773867 55.125333-94.651733 26.965333-40.567467-29.371733-50.807467-76.151467-17.834667-113.373867 33.092267-37.358933 96.4096-10.410667 113.2544 42.257067z" fill="#00B386"/>
</svg>
